<?xml version="1.0" encoding="UTF-8"?> <svg xmlns="http://www.w3.org/2000/svg" id="Groupe_5" data-name="Groupe 5" width="500.861" height="500.854" viewBox="0 0 500.861 500.854"><g id="Groupe_4" data-name="Groupe 4"><path id="Tracé_69" data-name="Tracé 69" d="M37.539,535.741V34.886H538.4V535.741" transform="translate(-37.539 -34.886)" fill="#00539f"></path><g id="Groupe_3" data-name="Groupe 3" transform="translate(77.827 41.528)"><path id="Tracé_70" data-name="Tracé 70" d="M435.321,65.688l.281-2.4C260.453,57.317,95.157,189.033,90.394,348.329c3.619,90.994,56.26,132.943,118.857,132.647,89.836,0,145.541-39.572,145.541-39.572L342.17,417.216s-52.97,31.749-109.257,34.165c-56.286,2.349-123.383-44.334-110.193-137.76,9.564-79.042,106.621-232.363,312.6-247.933" transform="translate(-90.394 -63.089)" fill="#e2001a"></path><path id="Tracé_71" data-name="Tracé 71" d="M389.079,107.974s-93.432,13.186-101.785,47.858c-1.308,3.987-2.933,11.995,4.768,22.791,7.028,9.745,12.023,13.155,13.77,14.973,1.807,1.8,19.52,13.405,11.713,20.79-5.382,4.264-12.872,7.951-16.484,10.31-3.574,2.428-52.688,23.991-63.445,29.373-10.8,5.41-44.869,28.357-46.118,40.736-.9,2.424-.11,10.795,2.979,14.973,2.51,3.393,11.388,10.159,19.756,13.763,8.374,3.585,19.757,12.581,14.343,16.751-5.36,4.21-13.748,7.825-20.937,12.005-7.159,4.2-53.272,25.727-57.46,47.27,0,0,36.513-37.707,79.033-44.9,7.174-2.368,19.161-7.757,19.766-16.175.62-8.368-4.157-13.76-11.973-16.7-7.794-3.014-28.155-9.652-26.978-22.237,0-3.55,5.4-14.359,14.4-19.716,8.961-5.4,41.912-26.338,68.855-37.122,11.983-5.383,49.249-18.889,48.473-32.955-.633-5.438-1.4-9.54-8.944-15.588-7.386-5.906-34.154-21.558-30.565-34.694,1.2-5.988,5.389-14.966,20.363-23.381,14.975-8.375,41.367-18.546,67.056-25.721Z" transform="translate(-62.147 -41.883)" fill="#e2001a"></path></g></g></svg> 